<svg id="line_color" height="512" viewBox="0 0 74 74" width="512" xmlns="http://www.w3.org/2000/svg" data-name="line color"><path d="m13.22 9.9h20.22a0 0 0 0 1 0 0v22.5a0 0 0 0 1 0 0h-20.22a11.254 11.254 0 0 1 -11.254-11.249 11.254 11.254 0 0 1 11.254-11.251z" fill="#fe7058" transform="matrix(.769 .639 -.639 .769 17.593 -6.431)"/><path d="m51.813 9.9h20.22a0 0 0 0 1 0 0v22.5a0 0 0 0 1 0 0h-20.22a11.254 11.254 0 0 1 -11.253-11.249 11.254 11.254 0 0 1 11.253-11.251z" fill="#e1e6e9" transform="matrix(-.769 .639 -.639 -.769 113.121 1.463)"/><path d="m5.6 14.621a11.254 11.254 0 0 1 15.847-1.47l13.822 11.479 1.731-2.086-15.557-12.916a11.254 11.254 0 0 0 -15.843 1.472 11.216 11.216 0 0 0 -2.45 8.947 11.184 11.184 0 0 1 2.45-5.426z" fill="#ea6453"/><path d="m52.557 13.151a11.254 11.254 0 0 1 15.843 1.47 11.184 11.184 0 0 1 2.445 5.426 11.216 11.216 0 0 0 -2.445-8.947 11.254 11.254 0 0 0 -15.847-1.47l-15.553 12.914 1.731 2.085z" fill="#d5d6db"/><path d="m47.359 35.022c-1.284 4.192-7.225 15.176-7.775 19.052a3.412 3.412 0 0 0 .306 2.026c.634 1.231 2.244 1.55 3.629 1.522s2.867-.236 4.073.444c1.349.761 2.092 2.513 3.608 2.828.657.137 1.357-.033 2 .153a3.806 3.806 0 0 1 2 2.15 3.208 3.208 0 0 1 .525 1.836c-.179 1.369-1.891 1.871-3.27 1.938h-32.137c-1.379-.068-3.092-.569-3.27-1.938a3.208 3.208 0 0 1 .525-1.836 3.806 3.806 0 0 1 2-2.15c.645-.186 1.345-.016 2-.153 1.516-.316 2.259-2.068 3.608-2.828 1.206-.68 2.689-.472 4.073-.444s2.995-.291 3.629-1.522a3.412 3.412 0 0 0 .305-2.022c-.507-3.572-4.973-14.7-6.361-19.279l10.173-12.255z" fill="#eeefee"/><path d="m47.359 35.022-1.8-2.167c-1.284 4.192-8.426 17.342-8.976 21.218a3.413 3.413 0 0 0 .307 2.027c.634 1.231 2.244 1.55 3.629 1.522.671-.013 1.365-.068 2.039-.044a3.22 3.22 0 0 1 -2.668-1.478 3.413 3.413 0 0 1 -.305-2.022c.55-3.878 6.49-14.864 7.774-19.056z" fill="#e1e6e9"/><path d="m55.2 63.193a3.807 3.807 0 0 0 -2-2.15c-.645-.186-1.345-.016-2-.153-1.516-.316-2.259-2.068-3.608-2.828-1.206-.68-2.689-.472-4.073-.444-.137 0-.278 0-.418-.005a3.883 3.883 0 0 1 1.491.45c1.349.761 2.092 2.513 3.608 2.828.657.137 1.357-.033 2 .153a3.807 3.807 0 0 1 2 2.15 3.208 3.208 0 0 1 .525 1.836c-.179 1.369-1.891 1.871-3.271 1.938h3c1.379-.068 3.092-.569 3.271-1.938a3.208 3.208 0 0 0 -.525-1.837z" fill="#e1e6e9"/><g fill="#323c6b"><path d="m54.25 5.652a.5.5 0 0 1 -.192-.961l.164-.069c.188-.079.376-.159.567-.228a.5.5 0 0 1 .338.941c-.174.063-.345.135-.516.207l-.169.071a.494.494 0 0 1 -.192.039z"/><path d="m69.129 8.083a.5.5 0 0 1 -.33-.125 13.542 13.542 0 0 0 -11.14-3.258.5.5 0 0 1 -.152-.988 14.566 14.566 0 0 1 2.233-.181 14.726 14.726 0 0 1 9.719 3.675.5.5 0 0 1 -.33.875z"/><path d="m17.125 59.487a.5.5 0 0 1 -.3-.9 5.675 5.675 0 0 1 .686-.444.5.5 0 1 1 .477.879 4.732 4.732 0 0 0 -.564.367.5.5 0 0 1 -.299.098z"/><path d="m19.78 58.476a.5.5 0 0 1 -.04-1c.126-.01.249-.012.368-.013a2.92 2.92 0 0 0 .3-.013 1.032 1.032 0 0 0 .711-.45 8.391 8.391 0 0 1 2.346-1.991 8.2 8.2 0 0 1 4.1-.948.5.5 0 1 1 0 1 7.247 7.247 0 0 0 -3.608.819 7.388 7.388 0 0 0 -2.065 1.756 2.024 2.024 0 0 1 -1.364.8 4 4 0 0 1 -.406.02c-.1 0-.2 0-.3.01z"/><path d="m22.623 40.361a.5.5 0 0 1 -.319-.115l-15.558-12.916a11.754 11.754 0 1 1 15.016-18.087l15.557 12.917a.5.5 0 0 1 .065.7l-14.376 17.321a.5.5 0 0 1 -.385.18zm-8.35-32.83q-.5 0-1.013.047a10.753 10.753 0 0 0 -5.875 18.983l15.173 12.6 13.742-16.551-15.173-12.6a10.673 10.673 0 0 0 -6.854-2.478z"/></g><path d="m15.606 29.081a.645.645 0 0 1 -.415-.15l-6.023-5a12 12 0 0 1 -1.551-1.547.65.65 0 0 1 1-.832 10.792 10.792 0 0 0 1.383 1.379l6.023 5a.65.65 0 0 1 -.415 1.15z" fill="#fff"/><path d="m18.89 31.807a.645.645 0 0 1 -.415-.15l-1.075-.891a.65.65 0 0 1 .83-1l1.073.891a.65.65 0 0 1 -.415 1.15z" fill="#fff"/><path d="m51.377 40.361a.5.5 0 0 1 -.385-.181l-14.377-17.316a.5.5 0 0 1 .065-.7l15.558-12.921a11.754 11.754 0 0 1 15.016 18.087l-15.554 12.916a.5.5 0 0 1 -.323.115zm-13.677-17.751 13.742 16.547 15.173-12.6a10.754 10.754 0 0 0 -13.738-16.544z" fill="#323c6b"/><path d="m20.317 67.467c-1.694-.082-3.555-.749-3.767-2.374a3.67 3.67 0 0 1 .578-2.132 4.234 4.234 0 0 1 2.306-2.4 4.147 4.147 0 0 1 1.215-.114 3.948 3.948 0 0 0 .824-.048 3.9 3.9 0 0 0 1.862-1.376 6.893 6.893 0 0 1 1.6-1.4 6.6 6.6 0 0 1 3.637-.533c.232.009.464.019.692.023.951.016 2.591-.119 3.175-1.251a2.905 2.905 0 0 0 .254-1.722c-.313-2.213-2.229-7.524-3.919-12.21-.984-2.729-1.913-5.307-2.426-6.995a.5.5 0 0 1 .094-.464l10.171-12.25a.518.518 0 0 1 .77 0l10.361 12.479a.5.5 0 0 1 .094.466 81.454 81.454 0 0 1 -3.357 7.9c-1.918 4.171-4.092 8.9-4.4 11.077a2.907 2.907 0 0 0 .255 1.722c.584 1.133 2.24 1.272 3.174 1.251.229 0 .461-.014.693-.023a6.6 6.6 0 0 1 3.636.533 6.893 6.893 0 0 1 1.6 1.4 3.907 3.907 0 0 0 1.861 1.374 3.957 3.957 0 0 0 .825.048 4.153 4.153 0 0 1 1.215.114 4.232 4.232 0 0 1 2.306 2.4 3.661 3.661 0 0 1 .577 2.132c-.212 1.625-2.072 2.292-3.742 2.373zm.149-6.02a2.759 2.759 0 0 0 -.755.076c-.764.22-1.257 1.06-1.7 1.9a2.794 2.794 0 0 0 -.473 1.54c.132 1.015 1.591 1.444 2.8 1.5h32.119c1.184-.059 2.643-.488 2.774-1.5a2.788 2.788 0 0 0 -.472-1.539c-.439-.841-.932-1.681-1.7-1.9a3.285 3.285 0 0 0 -.93-.075 4.792 4.792 0 0 1 -1.037-.069 4.684 4.684 0 0 1 -2.391-1.673 6.05 6.05 0 0 0 -1.356-1.207 5.785 5.785 0 0 0 -3.1-.4c-.24.01-.479.02-.715.024-1.156.021-3.251-.179-4.082-1.793a3.905 3.905 0 0 1 -.359-2.331c.33-2.322 2.441-6.914 4.483-11.354 1.361-2.961 2.651-5.766 3.228-7.518l-9.8-11.801-9.613 11.579c.519 1.664 1.4 4.108 2.33 6.689 1.706 4.731 3.64 10.093 3.969 12.405a3.9 3.9 0 0 1 -.355 2.321c-.832 1.614-2.911 1.813-4.083 1.793-.236 0-.475-.015-.714-.024a5.792 5.792 0 0 0 -3.1.4 6.05 6.05 0 0 0 -1.361 1.208 4.676 4.676 0 0 1 -2.391 1.673 4.775 4.775 0 0 1 -1.036.069z" fill="#323c6b"/></svg>