<svg id="line_color" height="512" viewBox="0 0 74 74" width="512" xmlns="http://www.w3.org/2000/svg" data-name="line color"><rect fill="#9297ab" height="5.752" rx="1.677" transform="matrix(.858 .514 -.514 .858 16.006 -18.822)" width="18.149" x="32.931" y="16.629"/><path d="m46.326 25.448-11.6-6.953-13.126 21.893a19.751 19.751 0 0 0 -1.969 15.86l.017.058a19.751 19.751 0 0 0 13.776-9.34z" fill="#eeefee"/><path d="m25.183 34.416-3.583 5.972a19.751 19.751 0 0 0 -1.969 15.86l.017.058a19.751 19.751 0 0 0 13.776-9.34l7.526-12.55z" fill="#fe7058"/><path d="m25.183 34.416-3.583 5.972a19.751 19.751 0 0 0 -1.969 15.86l.017.058a19.751 19.751 0 0 0 13.776-9.34l7.526-12.55z" fill="#fe7058"/><path d="m46.747 5.249a5.163 5.163 0 0 1 5.163 5.163v7.529a0 0 0 0 1 0 0h-10.326a0 0 0 0 1 0 0v-7.529a5.163 5.163 0 0 1 5.163-5.163z" fill="#9297ab" transform="matrix(.858 .514 -.514 .858 12.614 -22.386)"/><path d="m49.824 20.84-1.747-1.048h-.1a1.675 1.675 0 0 1 .541 2.278l-1.23 2.06a1.691 1.691 0 0 1 -1.88.76l1.47.88a1.677 1.677 0 0 0 2.3-.57l1.23-2.06a1.671 1.671 0 0 0 -.584-2.3z" fill="#84879c"/><path d="m50.014 6.15a4.251 4.251 0 0 0 -.71-.35 5.173 5.173 0 0 1 .69 6.21l-3.87 6.46v.147l1.793 1.075 3.87-6.45a5.16 5.16 0 0 0 -1.77-7.09z" fill="#84879c"/><path d="m15.186 68.915c0-2.486 4.5-7.7 4.5-7.7s4.5 5.218 4.5 7.7a4.5 4.5 0 1 1 -9 0z" fill="#fe7058"/><g fill="#323c6b"><path d="m19.688 73.917a5.007 5.007 0 0 1 -5-5c0-2.6 4.149-7.482 4.622-8.03a.518.518 0 0 1 .758 0c.473.548 4.623 5.434 4.623 8.03a5.008 5.008 0 0 1 -5.003 5zm0-11.928c-1.391 1.689-4 5.214-4 6.927a4 4 0 1 0 8 0c.001-1.716-2.609-5.238-4-6.928z"/><path d="m35.793 49.354a.5.5 0 0 1 -.429-.756l.282-.472a.5.5 0 1 1 .857.513l-.282.472a.5.5 0 0 1 -.428.243z"/><path d="m28.037 56.9a.5.5 0 0 1 -.254-.931 22.086 22.086 0 0 0 6.442-5.732.5.5 0 1 1 .8.6 23.057 23.057 0 0 1 -6.731 5.991.5.5 0 0 1 -.257.072z"/><path d="m39.109 8.958a.5.5 0 0 1 -.429-.757l.4-.667a.5.5 0 1 1 .857.514l-.4.667a.5.5 0 0 1 -.428.243z"/><path d="m40.445 6.75a.5.5 0 0 1 -.424-.766 8.739 8.739 0 0 1 7.339-4.067.5.5 0 0 1 0 1 7.728 7.728 0 0 0 -6.491 3.6.5.5 0 0 1 -.424.233z"/></g><path d="m40.95 34.416 5.374-8.966-2.36-1.42-6.552 10.386c1.114-.026 2.425.038 3.538 0z" fill="#e1e6e9"/><path d="m37.412 34.416-6.678 11.474a19.637 19.637 0 0 1 -11.5 8.82c.12.52.25 1.03.4 1.54l.02.06a19.738 19.738 0 0 0 13.77-9.34l7.526-12.554c-1.113.045-2.423-.011-3.538 0z" fill="#ea6453"/><path d="m19.651 56.806a.5.5 0 0 1 -.479-.354 20.325 20.325 0 0 1 2-16.321l13.128-21.894a.5.5 0 0 1 .686-.171l11.6 6.953a.5.5 0 0 1 .172.686l-12.9 21.518a20.212 20.212 0 0 1 -14.127 9.577.5.5 0 0 1 -.08.006zm15.249-37.625-12.869 21.464a19.291 19.291 0 0 0 -2.025 15.091 19.21 19.21 0 0 0 12.994-9.028l12.641-21.088z" fill="#323c6b"/><path d="m19.651 56.806a.5.5 0 0 1 -.479-.354 20.325 20.325 0 0 1 2-16.321l3.58-5.972a.5.5 0 0 1 .429-.243h15.769a.5.5 0 0 1 .429.757l-7.524 12.55a20.212 20.212 0 0 1 -14.124 9.577.5.5 0 0 1 -.08.006zm5.814-21.89-3.435 5.729a19.291 19.291 0 0 0 -2.025 15.091 19.21 19.21 0 0 0 12.995-9.028l7.069-11.792z" fill="#323c6b"/><path d="m47.729 26.513a2.167 2.167 0 0 1 -1.115-.309l-12.689-7.604a2.18 2.18 0 0 1 -.748-2.986l1.233-2.057a2.179 2.179 0 0 1 2.985-.748l12.69 7.607a2.176 2.176 0 0 1 .747 2.986l-1.232 2.054a2.178 2.178 0 0 1 -1.871 1.057zm-.6-1.167a1.178 1.178 0 0 0 1.615-.4l1.232-2.056a1.176 1.176 0 0 0 -.4-1.615l-12.69-7.607a1.176 1.176 0 0 0 -1.614.4l-1.233 2.057a1.179 1.179 0 0 0 .4 1.614l12.689 7.607z" fill="#323c6b"/><path d="m47.912 20.193a.5.5 0 0 1 -.257-.071l-8.855-5.31a.5.5 0 0 1 -.172-.686l3.872-6.457a5.663 5.663 0 0 1 9.714 5.823l-3.873 6.458a.5.5 0 0 1 -.308.228.484.484 0 0 1 -.121.015zm-8.171-5.981 8 4.8 3.614-6.029a4.663 4.663 0 0 0 -8-4.8z" fill="#323c6b"/><path d="m38.072 17.683a.559.559 0 0 1 -.292-.081l-.612-.368a.568.568 0 0 1 .587-.972l.611.368a.568.568 0 0 1 -.294 1.054z" fill="#fff"/><path d="m45.757 22.289a.562.562 0 0 1 -.294-.083l-5.736-3.492a.568.568 0 1 1 .59-.97l5.736 3.492a.567.567 0 0 1 -.3 1.052z" fill="#fff"/></svg>