<svg id="line_color" height="512" viewBox="0 0 74 74" width="512" xmlns="http://www.w3.org/2000/svg" data-name="line color"><path d="m18.786 54.637a5.9 5.9 0 0 1 5.9 5.9v.568a0 0 0 0 1 0 0h-11.804a0 0 0 0 1 0 0v-.568a5.9 5.9 0 0 1 5.904-5.9z" fill="#d5d6db" transform="matrix(-.766 -.643 .643 -.766 -4.062 114.266)"/><path d="m20.492 62.236a6.405 6.405 0 0 1 -4.892-10.526l.365-.435a.5.5 0 0 1 .335-.175.483.483 0 0 1 .365.115l9.042 7.6a.5.5 0 0 1 .061.7l-.365.435a6.362 6.362 0 0 1 -4.35 2.261q-.279.025-.561.025zm-4.083-9.936-.044.052a5.405 5.405 0 0 0 .661 7.615 5.4 5.4 0 0 0 7.615-.661l.043-.052z" fill="#323c6b"/><path d="m48.53 41.7-15.24 18.14a5.326 5.326 0 0 1 -7.5.65l-10.91-9.16a5.318 5.318 0 0 1 -.66-7.5l7.64-9.09z" fill="#fe7058"/><path d="m58.91 29.35-10.38 12.35-26.67-6.96 17.99-21.41z" fill="#eeefee"/><path d="m48.53 41.7-15.24 18.14a5.326 5.326 0 0 1 -7.5.65l-1.35-1.14a5.312 5.312 0 0 0 6.64-1.23l14.45-17.2z" fill="#ea6453"/><path d="m58.91 29.35-10.38 12.35-3-.78.79-.94 10.38-12.35-16.92-14.22.07-.08z" fill="#e1e6e9"/><path d="m61.46 31.991a.5.5 0 0 1 -.321-.117l-24.162-20.3a.5.5 0 0 1 .644-.766l24.162 20.3a.5.5 0 0 1 -.322.883z" fill="#323c6b"/><path d="m51.766 5.336h6.889v18.128h-6.889z" fill="#d5d6db" transform="matrix(-.766 -.643 .643 -.766 88.215 60.943)"/><g fill="#323c6b"><path d="m52.016 24.055a.5.5 0 0 1 -.321-.117l-5.274-4.432a.5.5 0 0 1 -.061-.7l11.662-13.883a.5.5 0 0 1 .7-.061l5.278 4.432a.5.5 0 0 1 .061.7l-11.661 13.883a.5.5 0 0 1 -.384.178zm-4.569-4.993 4.508 3.788 11.019-13.112-4.508-3.788z"/><path d="m66.35 12.422a.5.5 0 0 1 -.321-.117l-10.618-8.922a.5.5 0 0 1 .644-.766l10.618 8.922a.5.5 0 0 1 -.322.883z"/><path d="m7.649 71.5a.5.5 0 0 1 -.381-.824l9.055-10.649a.5.5 0 1 1 .762.647l-9.055 10.65a.5.5 0 0 1 -.381.176z"/><path d="m18.4 45.3a.5.5 0 0 1 -.321-.117l-2.926-2.459a.5.5 0 0 1 .644-.766l2.926 2.459a.5.5 0 0 1 -.322.883z"/><path d="m23.323 39.437a.5.5 0 0 1 -.323-.117l-2.926-2.458a.5.5 0 0 1 .644-.766l2.926 2.458a.5.5 0 0 1 -.322.883z"/><path d="m28.25 33.574a.5.5 0 0 1 -.321-.117l-2.929-2.457a.5.5 0 1 1 .644-.766l2.926 2.458a.5.5 0 0 1 -.322.883z"/><path d="m33.176 27.712a.5.5 0 0 1 -.321-.117l-2.926-2.459a.5.5 0 1 1 .644-.766l2.927 2.459a.5.5 0 0 1 -.322.883z"/><path d="m38.1 21.849a.5.5 0 0 1 -.321-.117l-2.926-2.459a.5.5 0 1 1 .644-.766l2.926 2.459a.5.5 0 0 1 -.322.883z"/><path d="m36.859 60.667a.5.5 0 0 1 -.382-.822l.28-.333a.5.5 0 0 1 .765.644l-.28.333a.5.5 0 0 1 -.383.178z"/><path d="m29.208 65.242a8.8 8.8 0 0 1 -2.959-.515.5.5 0 1 1 .336-.942 7.893 7.893 0 0 0 8.5-2.209.5.5 0 0 1 .752.66 8.824 8.824 0 0 1 -6.629 3.006z"/><path d="m17.432 35.844a.5.5 0 0 1 -.382-.822l.446-.531a.5.5 0 0 1 .766.644l-.446.531a.5.5 0 0 1 -.384.178z"/><path d="m19.506 33.375a.5.5 0 0 1 -.382-.822l6.553-7.8a.5.5 0 0 1 .766.644l-6.553 7.803a.5.5 0 0 1 -.384.175z"/><path d="m29.205 62.232a5.792 5.792 0 0 1 -3.737-1.359l-10.91-9.16a5.832 5.832 0 0 1 -.722-8.2l7.64-9.09a.5.5 0 0 1 .509-.162l26.67 6.96a.5.5 0 0 1 .256.806l-15.24 18.14a5.834 5.834 0 0 1 -4.466 2.065zm-7.165-26.932-7.44 8.852a4.831 4.831 0 0 0 .6 6.8l10.91 9.16a4.84 4.84 0 0 0 6.8-.59l14.73-17.533z"/><path d="m48.53 42.2a.51.51 0 0 1 -.126-.016l-26.67-6.96a.5.5 0 0 1 -.256-.806l17.99-21.41a.5.5 0 0 1 .34-.176.485.485 0 0 1 .365.115l19.06 16.02a.5.5 0 0 1 .061.7l-10.38 12.35a.5.5 0 0 1 -.384.183zm-25.779-7.744 25.6 6.681 9.855-11.726-18.295-15.376z"/></g><path d="m27.969 40.124a.648.648 0 0 1 -.157-.02l-.673-.167a.65.65 0 0 1 .313-1.262l.673.167a.65.65 0 0 1 -.156 1.281z" fill="#fff"/><path d="m40.312 43.185a.641.641 0 0 1 -.157-.02l-9.555-2.371a.65.65 0 1 1 .313-1.262l9.554 2.368a.65.65 0 0 1 -.156 1.281z" fill="#fff"/></svg>