<svg id="line_color" height="512" viewBox="0 0 74 74" width="512" xmlns="http://www.w3.org/2000/svg" data-name="line color"><ellipse cx="21.311" cy="46.488" fill="#eeefee" rx="18.311" ry="13.355"/><path d="m21.311 33.132c-7.471 0-13.885 3.268-16.733 7.947 3.328-3.346 8.716-5.53 14.816-5.53 10.113 0 18.306 5.979 18.306 13.351a10.34 10.34 0 0 1 -1.578 5.409 11.1 11.1 0 0 0 3.494-7.825c.005-7.372-8.193-13.352-18.305-13.352z" fill="#e1e6e9"/><path d="m3 53.165c0 7.376 8.2 13.355 18.311 13.355s18.311-5.979 18.311-13.355v-6.677c0 7.376-8.2 13.355-18.311 13.355s-18.311-5.979-18.311-13.355z" fill="#d5d6db"/><path d="m21.311 67.021c-10.373 0-18.811-6.216-18.811-13.856v-6.677a.5.5 0 0 1 1 0c0 7.088 7.99 12.855 17.811 12.855s17.811-5.767 17.811-12.855a.5.5 0 0 1 1 0v6.677c-.001 7.64-8.439 13.856-18.811 13.856zm-17.811-16.073v2.217c0 7.088 7.99 12.855 17.811 12.855s17.811-5.767 17.811-12.855v-2.217c-2.526 5.458-9.556 9.395-17.811 9.395s-15.285-3.936-17.811-9.395z" fill="#323c6b"/><path d="m14.38 59.35a.5.5 0 0 1 -.439-.739l13.526-24.821a.5.5 0 0 1 .879.479l-13.527 24.82a.5.5 0 0 1 -.439.261z" fill="#323c6b"/><circle cx="53.844" cy="24.635" fill="#eeefee" r="17.156"/><path d="m53.844 7.479a17.09 17.09 0 0 0 -12.479 5.408 17.137 17.137 0 0 1 22.549 25.613 17.142 17.142 0 0 0 -10.07-31.021z" fill="#e1e6e9"/><g fill="#323c6b"><path d="m47.351 41.016a.5.5 0 0 1 -.465-.685l12.674-31.884a.5.5 0 1 1 .93.369l-12.675 31.884a.5.5 0 0 1 -.464.316z"/><path d="m2.215 40.238-.473-.179-.437-.244c.124-.222.212-.379.308-.534a.5.5 0 1 1 .852.522c-.088.143-.165.289-.25.435z"/><path d="m3.507 38.042a.5.5 0 0 1 -.379-.826 22.028 22.028 0 0 1 10.566-6.5.5.5 0 0 1 .277.961 21.028 21.028 0 0 0 -10.086 6.2.5.5 0 0 1 -.378.165z"/><path d="m65.593 8.813a.5.5 0 0 1 -.292-.094 19.62 19.62 0 0 0 -10.086-3.648.5.5 0 0 1 -.464-.534.491.491 0 0 1 .534-.464 20.63 20.63 0 0 1 10.6 3.833.5.5 0 0 1 -.292.906z"/><path d="m68.591 11.5a.5.5 0 0 1 -.365-.159l-.465-.5a.5.5 0 1 1 .73-.683l.465.5a.5.5 0 0 1 -.365.841z"/><path d="m53.844 42.291a17.656 17.656 0 1 1 17.656-17.656 17.675 17.675 0 0 1 -17.656 17.656zm0-34.312a16.656 16.656 0 1 0 16.656 16.656 16.674 16.674 0 0 0 -16.656-16.656z"/></g><path d="m42.712 32.567a.65.65 0 0 1 -.545-.293 13.9 13.9 0 0 1 -2.275-7.639 14.126 14.126 0 0 1 .1-1.71.65.65 0 0 1 1.291.158 12.677 12.677 0 0 0 1.968 8.478.65.65 0 0 1 -.543 1.006z" fill="#fff"/><path d="m45.071 35.285a.649.649 0 0 1 -.43-.162c-.146-.128-.289-.259-.429-.393a.65.65 0 0 1 .9-.938c.126.121.256.239.388.355a.65.65 0 0 1 -.43 1.138z" fill="#fff"/><path d="m21.311 60.343c-10.373 0-18.811-6.216-18.811-13.855s8.438-13.855 18.811-13.855 18.811 6.215 18.811 13.855-8.439 13.855-18.811 13.855zm0-26.71c-9.821-.001-17.811 5.767-17.811 12.855s7.99 12.855 17.811 12.855 17.811-5.767 17.811-12.855-7.991-12.856-17.811-12.856z" fill="#323c6b"/></svg>